<svg xmlns="http://www.w3.org/2000/svg" width="55.051" height="41" viewBox="0 0 55.051 41">
  <path id="book" d="M64,26.317a15.828,15.828,0,0,0-3.261-3.24c-8.258-6.119-19.988-2.2-23.842-.614-3.854-1.588-15.584-5.505-23.842.614A15.83,15.83,0,0,0,9.8,26.317a2.1,2.1,0,0,0-.423,1.228v31.1a2.118,2.118,0,0,0,3.684,1.419,15.822,15.822,0,0,1,12.365-5,15.242,15.242,0,0,1,9.909,4.955,3.021,3.021,0,0,0,.529.381h.148a2.1,2.1,0,0,0,1.524,0h.148a3.021,3.021,0,0,0,.529-.381,15.249,15.249,0,0,1,10.163-4.955,15.84,15.84,0,0,1,12.365,4.955,2.117,2.117,0,0,0,3.684-1.376v-31.1A2.1,2.1,0,0,0,64,26.317ZM25.784,50.837a19.062,19.062,0,0,0-12.175,3.3V28.329a11.721,11.721,0,0,1,1.969-1.863c6.2-4.637,15.478-1.757,19.2-.3V54.076a18.908,18.908,0,0,0-9-3.24Zm34.407,3.3a19.316,19.316,0,0,0-10.587-3.3H48.08a18.927,18.927,0,0,0-9.062,3.24V26.169c3.705-1.461,13-4.235,19.2.3a11.719,11.719,0,0,1,1.969,1.863Z" transform="translate(-9.374 -19.76)" fill="#fff"/>
</svg>
