<svg xmlns="http://www.w3.org/2000/svg" width="70" height="69.833" viewBox="0 0 70 69.833">
  <path id="goal" d="M69.282,10.855,62.728,8.77a2.156,2.156,0,0,0-.16-.2c-.041-.039-.086-.069-.13-.1l-1.691-6.34a1.95,1.95,0,0,0-3.264-.875L51.955,6.789a1.953,1.953,0,0,0-.5,1.881l1.639,6.16c-.028.063-.061.121-.083.188a2.072,2.072,0,0,0-.083.441L35.73,32.647A9.294,9.294,0,1,0,38.492,35.4L42.7,31.2A15.168,15.168,0,0,1,30.688,55.632h0A15.18,15.18,0,0,1,19.956,29.717a15.272,15.272,0,0,1,16.886-3.142,1.95,1.95,0,0,0,1.581-3.564A19.194,19.194,0,0,0,17.2,26.961,19.081,19.081,0,0,0,30.685,59.535h0a19.081,19.081,0,0,0,14.8-31.125l5.021-5.021A26.134,26.134,0,1,1,43.7,17.756a1.95,1.95,0,0,0,1.942-3.382,30.168,30.168,0,1,0,7.623,6.254l2.494-2.491a1.961,1.961,0,0,0,.218-.028c.052-.014.1-.039.143-.055l6.447,2.052a1.98,1.98,0,0,0,.59.091,1.958,1.958,0,0,0,1.379-.571l5.528-5.534a1.953,1.953,0,0,0-.783-3.239ZM57.85,6.4l.77,2.888a1.653,1.653,0,0,0-.083.19,2.072,2.072,0,0,0-.083.441l-2.083,2.086L55.5,8.75ZM34.5,44.277a5.4,5.4,0,1,1-1.639-8.762L29.3,39.075a1.95,1.95,0,1,0,2.756,2.759l3.556-3.556a5.407,5.407,0,0,1-1.115,6ZM62.619,16.028,59.013,14.88l2.27-2.27a2.191,2.191,0,0,0,.229-.036c.05-.014.091-.036.141-.052L65.047,13.6Z" transform="translate(-0.637 -0.684)" fill="#fff"/>
</svg>
