<svg xmlns="http://www.w3.org/2000/svg" width="70" height="55.304" viewBox="0 0 70 55.304">
  <g id="illustration" transform="translate(-0.003 -10.938)">
    <path id="Path_5" data-name="Path 5" d="M34.008,63.138,9.553,38.683a16.739,16.739,0,0,1-4.766-8h1.8V24.1H4.773a14.262,14.262,0,0,1,27.754,0h-1.81V26.3H18.65v2.194H30.717v2.194H37.3V28.489H49.366V26.3H37.3V24.1h-1.81a14.262,14.262,0,0,1,27.754,0h-1.81v6.582h1.8a16.735,16.735,0,0,1-4.769,8l1.552,1.552a18.607,18.607,0,0,0,5.449-9.552h2.55V24.1h-2.54a16.435,16.435,0,0,0-31.467-2.575A16.435,16.435,0,0,0,2.542,24.1H0v6.582h2.55A18.6,18.6,0,0,0,8,40.235L34.009,66.242,47.949,52.3,46.4,50.75ZM65.82,28.489H63.626V26.3H65.82Zm-30.716,0H32.91V26.3H35.1ZM2.195,26.3H4.389v2.194H2.195Z" transform="translate(0 0)" fill="#fff"/>
    <path id="Path_6" data-name="Path 6" d="M46.875,70.312h2.194v2.194H46.875Z" transform="translate(-13.965 -17.689)" fill="#fff"/>
    <path id="Path_7" data-name="Path 7" d="M46.875,64.062h2.194v2.194H46.875Z" transform="translate(-13.965 -15.827)" fill="#fff"/>
    <path id="Path_8" data-name="Path 8" d="M46.875,57.812h2.194v2.194H46.875Z" transform="translate(-13.965 -13.965)" fill="#fff"/>
    <path id="Path_9" data-name="Path 9" d="M46.875,51.562h2.194v2.194H46.875Z" transform="translate(-13.965 -12.103)" fill="#fff"/>
    <path id="Path_10" data-name="Path 10" d="M64.551,48.926l9.094,24.682,2.526-2.523,2.106-8.433,8.433-2.106,2.523-2.526ZM76.467,60.842l-2.1,8.386-6.116-16.6,16.6,6.116Z" transform="translate(-19.231 -11.318)" fill="#fff"/>
  </g>
</svg>
