<svg xmlns="http://www.w3.org/2000/svg" width="57.77" height="48.521" viewBox="0 0 57.77 48.521">
  <path id="reading" d="M16.7,57.42v1.819a.99.99,0,1,1-1.98,0V57.42a.99.99,0,1,1,1.98,0ZM23.428,20.27h3.631a.99.99,0,1,0,0-1.98H23.423a.99.99,0,0,0,0,1.98Zm-1.8,3.708h7.233a.99.99,0,0,0,0-1.98H21.624a.99.99,0,0,0,0,1.98Zm0,3.708h7.233a.99.99,0,0,0,0-1.98H21.624a.99.99,0,0,0,0,1.98ZM61.106,48.725c-.364,1.458-.728,2.948-.926,4.3H60.5a.989.989,0,0,1,.99.99v5.223a.99.99,0,1,1-1.98,0V55.007H48.327v4.233a.99.99,0,1,1-1.98,0V54.017a.99.99,0,0,1,.99-.99H49.01a12.844,12.844,0,0,1-2.146-5.819H19.736a12.872,12.872,0,0,1-2.146,5.819h1.671a.989.989,0,0,1,.99.99v5.223a.99.99,0,1,1-1.98,0V55.007H7.085v4.233a.99.99,0,1,1-1.98,0V54.017a.99.99,0,0,1,.99-.99h.327c-.2-1.351-.564-2.842-.926-4.3h0a41.787,41.787,0,0,1-1.057-5.116c-.443-3.874,5.3-10.121,7.326-12.047V14.777a.99.99,0,0,1,.99-.99h3.762c8.346-4.007,14.913-1.158,16.784-.151,1.871-1.007,8.435-3.861,16.779.151h3.762a.989.989,0,0,1,.99.99V31.561c2.03,1.926,7.775,8.173,7.326,12.05v0a41.39,41.39,0,0,1-1.052,5.116Zm-8.25-32.958H50.863V37.522l1.993,1.98Zm-18.567-.418v24.5A39.266,39.266,0,0,1,42.2,38.772h.074a3.333,3.333,0,0,1-.28-.908,3.49,3.49,0,0,1,.772-2.681,3.266,3.266,0,0,1,2.178-1.255,3.466,3.466,0,0,1,2.592.725c.423.329.9.725,1.354,1.109V15.4c-7.312-3.356-12.985-.911-14.6-.054ZM17.715,15.4V35.762c.45-.381.931-.78,1.354-1.109h0a3.466,3.466,0,0,1,2.592-.725,3.275,3.275,0,0,1,2.178,1.255,3.493,3.493,0,0,1,.772,2.681,3.338,3.338,0,0,1-.282.908h.074a39.225,39.225,0,0,1,7.9,1.082v-24.5c-1.606-.856-7.279-3.3-14.594.054Zm-3.973.364V39.5l1.993-1.98V15.767ZM15,53.026c.713-.658,2.864-3.04,2.894-7.834a7.419,7.419,0,0,1,3.389-5.923,3.018,3.018,0,0,0,1.369-1.708,1.586,1.586,0,0,0-.4-1.188,1.3,1.3,0,0,0-.854-.48,1.454,1.454,0,0,0-1.114.329c-1.148.891-2.812,2.376-2.886,2.443l-5.2,5.158a1,1,0,0,1-.708.309.989.989,0,0,1-.713-.295.978.978,0,0,1-.287-.715.993.993,0,0,1,.314-.705l.955-.948v-7.1C9.238,37.1,6.164,41.3,6.4,43.383a40.706,40.706,0,0,0,1.01,4.866,44.282,44.282,0,0,1,1,4.78Zm31.727-7.8V45.2h0a5.415,5.415,0,0,0-2.394-4.218c-2.446-.775-8.589.512-10.782,1.082h-.03v0a4.41,4.41,0,0,1-.443,0h-.027c-2.193-.569-8.344-1.859-10.782-1.082v0A5.391,5.391,0,0,0,19.873,45.2v.022ZM60.192,43.38c.24-2.079-2.834-6.282-5.361-9.01v7.094l.955.948a.991.991,0,0,1-.688,1.715.979.979,0,0,1-.705-.309l-5.2-5.158c-.074-.069-1.738-1.552-2.886-2.443a1.474,1.474,0,0,0-1.114-.329,1.312,1.312,0,0,0-.856.483,1.593,1.593,0,0,0-.4,1.188,3.019,3.019,0,0,0,1.371,1.705A7.423,7.423,0,0,1,48.7,45.187c.03,4.792,2.193,7.183,2.894,7.834h6.587a43.7,43.7,0,0,1,1-4.772,40.809,40.809,0,0,0,1.01-4.866Zm-9.3,13.049a.99.99,0,0,0-.99.99v1.819a.99.99,0,1,0,1.98,0V57.42a.989.989,0,0,0-.99-.99ZM39.541,20.27h3.634a.99.99,0,0,0,0-1.98H39.541a.99.99,0,0,0,0,1.98Zm-1.8,3.708h7.235a.99.99,0,1,0,0-1.98H37.742a.99.99,0,1,0,0,1.98Zm0,3.708h7.235a.99.99,0,1,0,0-1.98H37.742a.99.99,0,0,0,0,1.98Z" transform="translate(-4.412 -11.709)" fill="#fff"/>
</svg>
